<svg width="178" height="48" viewBox="0 0 178 48" fill="none" xmlns="http://www.w3.org/2000/svg">
<g clip-path="url(#clip0_64_48)">
<mask id="mask0_64_48" style="mask-type:luminance" maskUnits="userSpaceOnUse" x="130" y="0" width="48" height="48">
<path d="M178 0H130V48H178V0Z" fill="white"/>
</mask>
<g mask="url(#mask0_64_48)">
<path d="M178 21.1833C178 17.3038 175.159 14.0755 171.448 13.469C170.283 8.39089 165.738 4.69647 160.415 4.69647C155.655 4.69647 151.411 7.69979 149.789 12.1057C144.256 13.3701 139.858 17.7694 138.697 23.44C133.798 24.0684 130 28.2646 130 33.3311C130 38.8299 134.474 43.3035 139.972 43.3035H166.16C171.659 43.3035 176.132 38.8299 176.132 33.3311C176.132 31.2674 175.502 29.3484 174.424 27.7558C176.622 26.3458 178 23.9038 178 21.1833ZM160.415 7.66554C164.648 7.66554 168.213 10.8296 168.709 15.0255L168.864 16.3358H170.183C172.856 16.3358 175.031 18.5105 175.031 21.1833C175.031 23.0536 173.982 24.7123 172.354 25.5213C170.966 24.4183 169.279 23.6765 167.436 23.4399C166.064 16.7443 160.181 11.8213 153.243 11.7385C154.724 9.26508 157.431 7.66554 160.415 7.66554ZM166.16 40.3344H139.972C136.111 40.3344 132.969 37.1928 132.969 33.3311C132.969 29.4694 136.111 26.3277 139.973 26.3277H141.292L141.447 25.0174C142.142 19.1387 147.137 14.7057 153.066 14.7057C158.995 14.7057 163.99 19.1387 164.685 25.0174L164.84 26.3277H166.159C170.021 26.3277 173.163 29.4694 173.163 33.3311C173.163 37.1928 170.021 40.3344 166.16 40.3344Z" fill="url(#paint0_linear_64_48)"/>
</g>
<path d="M10.016 36.384C8.224 36.384 6.50667 36.1493 4.864 35.68C3.22133 35.1893 1.89867 34.56 0.895996 33.792L2.656 29.888C3.616 30.5707 4.74667 31.136 6.048 31.584C7.37067 32.0107 8.704 32.224 10.048 32.224C11.072 32.224 11.8933 32.128 12.512 31.936C13.152 31.7227 13.6213 31.4347 13.92 31.072C14.2187 30.7093 14.368 30.2933 14.368 29.824C14.368 29.2267 14.1333 28.7573 13.664 28.416C13.1947 28.0533 12.576 27.7653 11.808 27.552C11.04 27.3173 10.1867 27.104 9.248 26.912C8.33067 26.6987 7.40267 26.4427 6.464 26.144C5.54667 25.8453 4.704 25.4613 3.936 24.992C3.168 24.5227 2.53867 23.904 2.048 23.136C1.57867 22.368 1.344 21.3867 1.344 20.192C1.344 18.912 1.68533 17.7493 2.368 16.704C3.072 15.6373 4.11733 14.7947 5.504 14.176C6.912 13.536 8.672 13.216 10.784 13.216C12.192 13.216 13.5787 13.3867 14.944 13.728C16.3093 14.048 17.5147 14.5387 18.56 15.2L16.96 19.136C15.9147 18.5387 14.8693 18.1013 13.824 17.824C12.7787 17.5253 11.7547 17.376 10.752 17.376C9.74933 17.376 8.928 17.4933 8.288 17.728C7.648 17.9627 7.18933 18.272 6.912 18.656C6.63467 19.0187 6.496 19.4453 6.496 19.936C6.496 20.512 6.73067 20.9813 7.2 21.344C7.66933 21.6853 8.288 21.9627 9.056 22.176C9.824 22.3893 10.6667 22.6027 11.584 22.816C12.5227 23.0293 13.4507 23.2747 14.368 23.552C15.3067 23.8293 16.16 24.2027 16.928 24.672C17.696 25.1413 18.3147 25.76 18.784 26.528C19.2747 27.296 19.52 28.2667 19.52 29.44C19.52 30.6987 19.168 31.8507 18.464 32.896C17.76 33.9413 16.704 34.784 15.296 35.424C13.9093 36.064 12.1493 36.384 10.016 36.384ZM26.8383 32.48L26.9663 26.4L34.9983 18.784H40.9503L33.2383 26.624L30.6463 28.736L26.8383 32.48ZM22.7103 36V12.256H27.7023V36H22.7103ZM35.5423 36L29.7183 28.768L32.8543 24.896L41.5903 36H35.5423ZM44.98 42.464C44.084 42.464 43.1987 42.3253 42.324 42.048C41.4493 41.7707 40.7347 41.3867 40.18 40.896L42.004 37.344C42.388 37.6853 42.8253 37.952 43.316 38.144C43.828 38.336 44.3293 38.432 44.82 38.432C45.524 38.432 46.0787 38.2613 46.484 37.92C46.9107 37.6 47.2947 37.056 47.636 36.288L48.532 34.176L48.916 33.632L55.092 18.784H59.892L52.116 37.056C51.5613 38.4427 50.9213 39.5307 50.196 40.32C49.492 41.1093 48.7027 41.664 47.828 41.984C46.9747 42.304 46.0253 42.464 44.98 42.464ZM47.924 36.672L40.244 18.784H45.396L51.348 33.184L47.924 36.672ZM65.4275 36L59.2195 18.784H63.9235L69.0755 33.6H66.8355L72.2115 18.784H76.4355L81.6515 33.6H79.4115L84.7235 18.784H89.1395L82.8995 36H78.0675L73.4915 23.296H74.9635L70.2275 36H65.4275ZM99.5355 36.256C97.5728 36.256 95.8448 35.872 94.3515 35.104C92.8795 34.336 91.7382 33.2907 90.9275 31.968C90.1168 30.624 89.7115 29.0987 89.7115 27.392C89.7115 25.664 90.1062 24.1387 90.8955 22.816C91.7062 21.472 92.8048 20.4267 94.1915 19.68C95.5782 18.912 97.1462 18.528 98.8955 18.528C100.581 18.528 102.096 18.8907 103.44 19.616C104.805 20.32 105.882 21.344 106.672 22.688C107.461 24.0107 107.856 25.6 107.856 27.456C107.856 27.648 107.845 27.872 107.824 28.128C107.802 28.3627 107.781 28.5867 107.76 28.8H93.7755V25.888H105.135L103.216 26.752C103.216 25.856 103.034 25.0773 102.672 24.416C102.309 23.7547 101.808 23.2427 101.168 22.88C100.528 22.496 99.7808 22.304 98.9275 22.304C98.0742 22.304 97.3168 22.496 96.6555 22.88C96.0155 23.2427 95.5142 23.7653 95.1515 24.448C94.7888 25.1093 94.6075 25.8987 94.6075 26.816V27.584C94.6075 28.5227 94.8102 29.3547 95.2155 30.08C95.6422 30.784 96.2288 31.328 96.9755 31.712C97.7435 32.0747 98.6395 32.256 99.6635 32.256C100.581 32.256 101.381 32.1173 102.064 31.84C102.768 31.5627 103.408 31.1467 103.984 30.592L106.64 33.472C105.85 34.368 104.858 35.0613 103.664 35.552C102.469 36.0213 101.093 36.256 99.5355 36.256ZM121.355 36.256C119.84 36.256 118.539 35.936 117.451 35.296C116.363 34.656 115.531 33.6853 114.955 32.384C114.379 31.0613 114.091 29.3973 114.091 27.392C114.091 25.3653 114.39 23.7013 114.987 22.4C115.606 21.0987 116.459 20.128 117.547 19.488C118.635 18.848 119.904 18.528 121.355 18.528C122.976 18.528 124.427 18.8907 125.707 19.616C127.008 20.3413 128.032 21.3653 128.779 22.688C129.547 24.0107 129.931 25.5787 129.931 27.392C129.931 29.184 129.547 30.7413 128.779 32.064C128.032 33.3867 127.008 34.4213 125.707 35.168C124.427 35.8933 122.976 36.256 121.355 36.256ZM111.179 36V12.256H116.171V22.272L115.851 27.36L115.947 32.48V36H111.179ZM120.491 32.16C121.323 32.16 122.059 31.968 122.699 31.584C123.36 31.2 123.883 30.656 124.267 29.952C124.672 29.2267 124.875 28.3733 124.875 27.392C124.875 26.3893 124.672 25.536 124.267 24.832C123.883 24.128 123.36 23.584 122.699 23.2C122.059 22.816 121.323 22.624 120.491 22.624C119.659 22.624 118.912 22.816 118.251 23.2C117.59 23.584 117.067 24.128 116.683 24.832C116.299 25.536 116.107 26.3893 116.107 27.392C116.107 28.3733 116.299 29.2267 116.683 29.952C117.067 30.656 117.59 31.2 118.251 31.584C118.912 31.968 119.659 32.16 120.491 32.16Z" fill="url(#paint1_linear_64_48)"/>
</g>
<defs>
<linearGradient id="paint0_linear_64_48" x1="130" y1="5" x2="178" y2="43" gradientUnits="userSpaceOnUse">
<stop stop-color="#6599FF"/>
<stop offset="1" stop-color="#664EFF"/>
</linearGradient>
<linearGradient id="paint1_linear_64_48" x1="-4.15693e-06" y1="5" x2="131.965" y2="40.4027" gradientUnits="userSpaceOnUse">
<stop stop-color="#6599FF"/>
<stop offset="1" stop-color="#664EFF"/>
</linearGradient>
<clipPath id="clip0_64_48">
<rect width="178" height="48" fill="white"/>
</clipPath>
</defs>
</svg>
