<svg width="42" height="38" viewBox="0 0 42 38" fill="none" xmlns="http://www.w3.org/2000/svg">
<path d="M37.5 12.022C39.268 12.59 40.5 14.278 40.5 16.216V24.788C40.5 27.06 38.806 28.988 36.54 29.174C35.86 29.228 35.18 29.278 34.5 29.318V35.5L28.5 29.5C25.792 29.5 23.112 29.39 20.46 29.174C19.8827 29.1273 19.3211 28.9626 18.81 28.69M37.5 12.022C37.191 11.9225 36.8715 11.8588 36.548 11.832C31.1919 11.3874 25.8081 11.3874 20.452 11.832C18.19 12.02 16.5 13.946 16.5 16.216V24.788C16.5 26.462 17.42 27.948 18.81 28.69M37.5 12.022V8.274C37.5 5.032 35.196 2.222 31.98 1.804C27.8416 1.26759 23.673 0.999027 19.5 1C15.27 1 11.104 1.274 7.02 1.804C3.804 2.222 1.5 5.032 1.5 8.274V20.726C1.5 23.968 3.804 26.778 7.02 27.196C8.174 27.346 9.334 27.476 10.5 27.584V37L18.81 28.69" stroke="url(#paint0_linear_199_36)" stroke-width="1.5" stroke-linecap="round" stroke-linejoin="round"/>
<defs>
<linearGradient id="paint0_linear_199_36" x1="1.5" y1="1" x2="40.5" y2="37" gradientUnits="userSpaceOnUse">
<stop offset="0.307292" stop-color="#6599FF"/>
<stop offset="1" stop-color="#664EFF"/>
</linearGradient>
</defs>
</svg>
