<svg width="26" height="44" viewBox="0 0 26 44" fill="none" xmlns="http://www.w3.org/2000/svg">
<path d="M10 1H5.5C4.30653 1 3.16193 1.47411 2.31802 2.31802C1.47411 3.16193 1 4.30653 1 5.5V38.5C1 39.6935 1.47411 40.8381 2.31802 41.682C3.16193 42.5259 4.30653 43 5.5 43H20.5C21.6935 43 22.8381 42.5259 23.682 41.682C24.5259 40.8381 25 39.6935 25 38.5V5.5C25 4.30653 24.5259 3.16193 23.682 2.31802C22.8381 1.47411 21.6935 1 20.5 1H16M10 1V4H16V1M10 1H16M10 38.5H16" stroke="url(#paint0_linear_199_27)" stroke-width="1.5" stroke-linecap="round" stroke-linejoin="round"/>
<defs>
<linearGradient id="paint0_linear_199_27" x1="1" y1="2" x2="25" y2="44" gradientUnits="userSpaceOnUse">
<stop offset="0.151042" stop-color="#6599FF"/>
<stop offset="1" stop-color="#664EFF"/>
</linearGradient>
</defs>
</svg>
