<?xml version="1.0" standalone="no"?>
<!DOCTYPE svg PUBLIC "-//W3C//DTD SVG 20010904//EN"
 "http://www.w3.org/TR/2001/REC-SVG-20010904/DTD/svg10.dtd">
<svg version="1.0" xmlns="http://www.w3.org/2000/svg"
 width="700.000000pt" height="700.000000pt" viewBox="0 0 700.000000 700.000000"
 preserveAspectRatio="xMidYMid meet">
<metadata>
Created by potrace 1.14, written by Peter Selinger 2001-2017
</metadata>
<g transform="translate(0.000000,700.000000) scale(0.100000,-0.100000)"
fill="#000000" stroke="none">
<path d="M4347 6314 c-1 -1 -36 -5 -77 -8 -253 -24 -521 -120 -747 -269 -118
-78 -161 -114 -275 -231 -135 -137 -245 -301 -326 -483 -29 -67 -44 -88 -62
-94 -174 -50 -175 -50 -315 -103 -67 -25 -275 -135 -350 -186 -283 -189 -488
-401 -665 -690 -48 -77 -72 -125 -140 -274 -28 -63 -94 -264 -110 -337 l-13
-57 -89 -16 c-567 -104 -1027 -560 -1149 -1139 -30 -143 -34 -386 -8 -523 27
-146 27 -146 60 -241 147 -418 476 -747 897 -897 40 -14 82 -28 95 -30 12 -3
54 -12 92 -21 39 -9 102 -19 140 -22 90 -9 4017 -9 4110 0 164 14 342 65 496
141 91 46 230 133 284 181 181 159 297 307 386 493 68 140 107 270 135 442 15
92 8 388 -11 442 -2 7 -6 30 -9 50 -16 106 -110 343 -181 454 -20 31 -35 57
-33 58 42 25 140 106 195 163 106 108 174 215 254 398 58 135 82 390 53 580
-53 348 -295 676 -619 838 -49 24 -225 90 -225 83 0 -1 -21 2 -47 9 l-47 12
-27 94 c-131 454 -477 849 -911 1040 -160 70 -336 118 -497 135 -57 6 -259 12
-264 8z m193 -438 c302 -27 553 -146 771 -368 200 -203 306 -445 344 -783 9
-79 16 -105 28 -105 289 -4 355 -14 474 -69 205 -97 357 -292 399 -515 10 -52
11 -188 2 -241 -25 -139 -100 -287 -198 -386 -25 -25 -102 -84 -143 -109 l-38
-22 -37 27 c-118 86 -245 154 -382 203 -108 39 -147 49 -263 68 -30 5 -38 12
-43 33 -12 51 -65 236 -73 256 -5 11 -19 47 -32 80 -27 74 -88 197 -142 290
-37 64 -161 243 -176 255 -4 3 -17 19 -30 35 -26 34 -147 161 -212 221 -263
243 -689 450 -1046 509 -18 3 -45 7 -60 10 -57 9 -191 21 -281 24 -15 1 29 70
97 151 191 227 416 357 736 426 11 3 63 7 115 11 52 3 97 7 98 9 2 1 9 1 15
-1 7 -2 41 -6 77 -9z m-990 -1031 c25 -3 56 -7 70 -9 14 -3 41 -7 60 -10 220
-34 512 -164 722 -323 97 -73 267 -246 328 -333 14 -19 27 -37 30 -40 3 -3 24
-34 46 -70 139 -221 222 -460 254 -725 13 -112 21 -169 23 -172 1 -1 70 -3
152 -4 212 -3 341 -31 489 -105 109 -55 174 -102 267 -194 150 -148 242 -319
285 -530 16 -77 21 -252 10 -330 -33 -222 -128 -411 -286 -570 -172 -174 -356
-269 -582 -300 -91 -13 -3976 -18 -4078 -5 -292 35 -555 194 -726 436 -164
234 -220 549 -148 834 86 340 357 620 700 723 111 34 187 43 360 42 l121 0 7
62 c14 129 18 156 41 274 29 143 69 262 135 399 44 91 123 222 163 271 9 10
30 37 47 59 17 22 59 69 93 104 291 301 679 487 1082 518 44 3 81 7 83 8 4 4
207 -4 252 -10z"/>
</g>
</svg>
